<?xml version="1.0" encoding="UTF-8" standalone="no"?>
<!-- Created with Inkscape (http://www.inkscape.org/) -->

<svg
   version="1.1"
   id="svg2"
   width="240"
   height="240"
   viewBox="0 0 240 240"
   sodipodi:docname="mini_logo.ai"
   xmlns:inkscape="http://www.inkscape.org/namespaces/inkscape"
   xmlns:sodipodi="http://sodipodi.sourceforge.net/DTD/sodipodi-0.dtd"
   xmlns="http://www.w3.org/2000/svg"
   xmlns:svg="http://www.w3.org/2000/svg">
  <defs
     id="defs6">
    <clipPath
       clipPathUnits="userSpaceOnUse"
       id="clipPath16">
      <path
         d="M 0,180 H 180 V 0 H 0 Z"
         id="path14" />
    </clipPath>
  </defs>
  <sodipodi:namedview
     id="namedview4"
     pagecolor="#ffffff"
     bordercolor="#000000"
     borderopacity="0.25"
     inkscape:showpageshadow="2"
     inkscape:pageopacity="0.0"
     inkscape:pagecheckerboard="0"
     inkscape:deskcolor="#d1d1d1" />
  <g
     id="g8"
     inkscape:groupmode="layer"
     inkscape:label="mini_logo"
     transform="matrix(1.3333333,0,0,-1.3333333,0,240)">
    <g
       id="g10">
      <g
         id="g12"
         clip-path="url(#clipPath16)">
        <g
           id="g18"
           transform="translate(0.0781,90)">
          <path
             d="m 0,0 c 0,-49.706 40.294,-90 90,-90 49.707,0 90,40.294 90,90 0,49.706 -40.293,90 -90,90 C 40.294,90 0,49.706 0,0"
             style="fill:#549dd3;fill-opacity:1;fill-rule:evenodd;stroke:none"
             id="path20" />
        </g>
        <g
           id="g22"
           transform="translate(103.0264,104.2354)">
          <path
             d="m 0,0 c -0.233,-0.187 -0.477,-0.375 -0.717,-0.561 0.508,-0.596 1.014,-1.193 1.521,-1.789 0.17,0.135 0.339,0.273 0.505,0.408 C 0.874,-1.294 0.44,-0.646 0,0 m -39.479,-20.074 c 0.986,1.953 1.348,3.946 0.376,6.02 0.037,0.263 0.07,0.524 0.106,0.786 0.549,3.747 1.113,7.492 1.627,11.245 0.073,0.521 -0.102,1.078 -0.162,1.616 0.229,0.697 0.457,1.393 0.685,2.087 0.259,0.071 0.729,0.116 0.741,0.216 0.19,1.596 0.321,3.201 0.466,4.803 0.327,1.373 0.802,2.734 0.92,4.125 0.06,0.738 -0.301,1.869 -0.845,2.191 -0.516,0.305 -1.727,0.027 -2.265,-0.429 -1.158,-0.984 -2.076,-2.246 -3.097,-3.393 -2.621,-0.013 -2.626,-0.012 -2.971,-2.416 -0.925,-6.429 -1.849,-12.862 -2.771,-19.294 -0.172,-1.2 -0.408,-2.398 -0.501,-3.603 -0.157,-2.056 0.522,-3.03 2.073,-3.158 0.559,-1.813 0.962,-3.7 1.758,-5.399 0.287,-0.613 1.549,-1.121 2.298,-1.042 0.528,0.054 1.196,1.131 1.346,1.848 0.259,1.225 0.162,2.527 0.216,3.797 M -28.3,36.891 c 0.016,-0.208 -0.046,-0.479 0.062,-0.617 0.194,-0.25 0.492,-0.42 0.746,-0.623 -0.067,0.345 -0.082,0.711 -0.221,1.022 -0.059,0.135 -0.373,0.157 -0.569,0.231 -0.016,0.211 0.047,0.481 -0.063,0.618 -0.195,0.25 -0.492,0.419 -0.747,0.62 0.067,-0.343 0.083,-0.708 0.222,-1.02 0.061,-0.136 0.373,-0.157 0.57,-0.231 m 2.915,-3.89 c 0.015,-0.21 -0.048,-0.481 0.061,-0.618 0.195,-0.25 0.491,-0.418 0.746,-0.622 -0.067,0.343 -0.081,0.709 -0.22,1.02 -0.062,0.136 -0.373,0.158 -0.57,0.233 -0.016,0.212 0.044,0.482 -0.064,0.618 -0.194,0.249 -0.492,0.418 -0.747,0.622 0.067,-0.345 0.084,-0.71 0.223,-1.022 0.058,-0.135 0.372,-0.157 0.571,-0.231 m 2.913,-3.89 c 0.014,-0.21 -0.047,-0.48 0.061,-0.62 0.195,-0.246 0.491,-0.418 0.747,-0.62 -0.067,0.344 -0.084,0.71 -0.223,1.021 -0.06,0.135 -0.37,0.158 -0.569,0.232 -0.015,0.21 0.047,0.481 -0.062,0.619 -0.196,0.247 -0.493,0.417 -0.748,0.619 0.067,-0.341 0.084,-0.71 0.223,-1.02 0.06,-0.136 0.373,-0.158 0.571,-0.231 m 2.911,-3.89 c 0.017,-0.21 -0.044,-0.481 0.062,-0.618 0.198,-0.249 0.492,-0.42 0.746,-0.623 -0.066,0.345 -0.082,0.71 -0.221,1.022 -0.06,0.135 -0.371,0.157 -0.568,0.232 -0.015,0.21 0.045,0.48 -0.063,0.617 -0.196,0.249 -0.493,0.419 -0.748,0.622 0.067,-0.344 0.083,-0.71 0.223,-1.023 0.061,-0.134 0.374,-0.156 0.569,-0.229 m 2.917,-3.889 c 0.013,-0.212 -0.049,-0.483 0.061,-0.619 0.193,-0.25 0.492,-0.421 0.744,-0.622 -0.064,0.343 -0.084,0.709 -0.221,1.021 -0.058,0.135 -0.372,0.158 -0.57,0.232 -0.013,0.209 0.046,0.481 -0.063,0.618 -0.194,0.249 -0.492,0.418 -0.745,0.62 0.066,-0.344 0.082,-0.71 0.222,-1.021 0.059,-0.135 0.374,-0.158 0.572,-0.229 m 2.91,-3.891 c 0.016,-0.209 -0.047,-0.48 0.062,-0.619 0.195,-0.248 0.491,-0.418 0.746,-0.622 -0.065,0.345 -0.08,0.71 -0.22,1.022 -0.06,0.132 -0.373,0.157 -0.57,0.231 -0.015,0.21 0.046,0.481 -0.062,0.618 -0.196,0.249 -0.494,0.418 -0.746,0.622 0.066,-0.344 0.084,-0.709 0.219,-1.023 0.063,-0.135 0.374,-0.156 0.571,-0.229 m 2.916,-3.892 c 0.014,-0.209 -0.05,-0.479 0.06,-0.617 0.195,-0.25 0.491,-0.418 0.746,-0.622 -0.064,0.344 -0.082,0.709 -0.221,1.021 -0.063,0.135 -0.369,0.159 -0.571,0.233 -0.012,0.21 0.046,0.479 -0.064,0.618 -0.193,0.249 -0.487,0.419 -0.743,0.62 0.066,-0.344 0.082,-0.71 0.222,-1.02 0.059,-0.136 0.369,-0.158 0.571,-0.233 m 2.913,-3.888 c 0.015,-0.212 -0.047,-0.482 0.06,-0.619 0.197,-0.25 0.491,-0.417 0.744,-0.622 -0.063,0.344 -0.081,0.709 -0.218,1.02 -0.061,0.136 -0.373,0.16 -0.57,0.231 -0.013,0.211 0.048,0.483 -0.062,0.621 -0.197,0.246 -0.493,0.416 -0.75,0.62 0.068,-0.344 0.085,-0.709 0.224,-1.02 0.062,-0.137 0.372,-0.16 0.572,-0.231 M -4.992,5.769 C -4.977,5.56 -5.038,5.291 -4.931,5.151 -4.735,4.902 -4.438,4.732 -4.185,4.53 -4.254,4.874 -4.265,5.238 -4.404,5.549 -4.467,5.684 -4.778,5.71 -4.974,5.782 -4.988,5.993 -4.932,6.263 -5.036,6.4 -5.234,6.649 -5.53,6.819 -5.786,7.021 -5.717,6.678 -5.7,6.312 -5.561,5.999 -5.504,5.865 -5.191,5.843 -4.992,5.769 M -2.079,1.88 c 0.016,-0.211 -0.045,-0.481 0.06,-0.618 0.196,-0.249 0.493,-0.418 0.748,-0.623 -0.067,0.344 -0.084,0.71 -0.219,1.02 -0.062,0.136 -0.374,0.16 -0.574,0.233 -0.012,0.211 0.047,0.481 -0.06,0.62 -0.196,0.248 -0.494,0.417 -0.748,0.62 0.067,-0.346 0.084,-0.712 0.223,-1.023 0.057,-0.133 0.375,-0.157 0.57,-0.229 m -42.492,-39.033 c -3.741,5.09 -5.24,10.998 -6.165,17.097 -0.757,4.985 -0.271,10.009 0.506,14.885 0.878,5.522 2.379,10.999 4.169,16.306 2.041,6.05 4.484,11.995 7.162,17.796 1.924,4.168 4.52,8.025 6.816,12.021 -0.277,-1.814 1.022,-1.152 1.943,-1.134 -0.772,0.35 -0.453,1.947 -1.887,1.504 0.731,1.154 1.387,2.365 2.208,3.452 3.273,4.335 6.431,8.775 9.965,12.891 2.088,2.436 4.796,4.343 7.228,6.487 0.97,0.485 1.953,0.946 2.904,1.463 1.333,0.726 2.56,0.468 2.529,-0.813 -0.036,-1.582 0.809,-1.533 1.793,-1.658 l -0.004,0.004 c 1.373,-3.534 2.745,-7.066 4.115,-10.598 0.68,-2.251 1.449,-4.481 2.015,-6.761 1.315,-5.314 2.832,-10.605 3.715,-16 C 5.678,22.249 6.504,14.634 6.592,6.97 6.667,0.25 6.784,-6.44 5.422,-13.117 4.403,-18.104 3.135,-22.905 0.8,-27.452 c -2.913,-5.678 -6.801,-10.399 -12.372,-13.627 -5.666,-3.283 -11.67,-4.918 -18.2,-3.382 -2.885,0.682 -5.695,1.67 -8.54,2.518 -0.262,0.179 -0.524,0.361 -0.786,0.537 -0.527,0.361 -1.056,0.72 -1.583,1.079 -0.679,0.65 -1.321,1.345 -2.047,1.942 -0.564,0.475 -1.224,0.826 -1.843,1.232"
             style="fill:#ecd0a2;fill-opacity:1;fill-rule:evenodd;stroke:none"
             id="path24" />
        </g>
        <g
           id="g26"
           transform="translate(64.7148,62.292)">
          <path
             d="m 0,0 c 2.845,-0.848 5.655,-1.836 8.54,-2.518 6.53,-1.536 12.533,0.099 18.199,3.382 5.572,3.229 9.459,7.949 12.372,13.627 2.335,4.547 3.604,9.349 4.622,14.336 1.363,6.676 1.246,13.366 1.17,20.086 -0.088,7.665 -0.914,15.279 -2.15,22.819 -0.884,5.395 -2.4,10.686 -3.716,16 -0.565,2.281 -1.335,4.51 -2.015,6.761 0.382,-0.238 0.926,-0.384 1.118,-0.728 0.694,-1.24 1.326,-2.523 1.871,-3.837 0.54,-1.311 1.396,-2.716 1.294,-4.012 -0.146,-1.798 0.431,-2.293 1.996,-2.268 l -0.007,-0.009 c 0.093,-0.312 0.185,-0.622 0.276,-0.934 1.156,-4.179 2.411,-8.335 3.435,-12.547 1.901,-7.851 2.818,-15.85 3.204,-23.909 C 50.585,38.458 50.414,30.677 48.803,23.021 47.416,16.402 44.943,10.14 40.827,4.726 37.118,-0.154 32.606,-4.166 26.545,-6.018 25.77,-6.124 24.691,-5.044 24.279,-6.596 l -0.01,0.015 c -1.504,-0.106 -3.013,-0.193 -4.514,-0.348 -0.17,-0.018 -0.297,-0.419 -0.442,-0.643 -0.12,-0.017 -0.233,-0.007 -0.346,0.028 -3.754,0.534 -7.503,1.067 -11.255,1.602 -0.108,-0.007 -0.21,0.008 -0.311,0.049 -1.366,0.64 -2.731,1.276 -4.096,1.911 l 0.002,-0.01 c 0.346,2.212 -1.479,1.25 -2.386,1.631 L 0.907,-2.374 c 0.201,1.011 -0.476,1.021 -1.164,1.018 l 0.005,0.013 C -0.17,-0.896 -0.084,-0.446 0,0"
             style="fill:#d2b88c;fill-opacity:1;fill-rule:evenodd;stroke:none"
             id="path28" />
        </g>
        <g
           id="g30"
           transform="translate(108.0156,145.9399)">
          <path
             d="m 0,0 c -1.564,-0.025 -2.142,0.47 -1.996,2.268 0.102,1.296 -0.754,2.701 -1.294,4.012 -0.545,1.314 -1.177,2.597 -1.871,3.837 -0.192,0.344 -0.735,0.49 -1.117,0.728 -1.37,3.532 -2.743,7.064 -4.116,10.598 1.072,-1.54 2.26,-3.017 3.199,-4.635 C -4.116,11.503 -1.735,5.884 0,0"
             style="fill:#cbb897;fill-opacity:1;fill-rule:evenodd;stroke:none"
             id="path32" />
        </g>
        <g
           id="g34"
           transform="translate(97.626,167.3794)">
          <path
             d="m 0,0 c -0.983,0.125 -1.828,0.076 -1.793,1.658 0.031,1.281 -1.195,1.539 -2.528,0.813 -0.951,-0.517 -1.935,-0.978 -2.905,-1.463 1.216,1.081 2.404,2.2 3.677,3.214 0.271,0.216 1.129,0.21 1.245,0.019 C -1.466,2.871 -0.755,1.423 0,0"
             style="fill:#cbb897;fill-opacity:1;fill-rule:evenodd;stroke:none"
             id="path36" />
        </g>
        <g
           id="g38"
           transform="translate(58.4551,67.082)">
          <path
             d="M 0,0 C 0.619,-0.405 1.28,-0.757 1.843,-1.231 2.569,-1.829 3.211,-2.523 3.891,-3.174 3.853,-3.449 3.813,-3.728 3.775,-4.003 3.706,-4.05 3.637,-4.092 3.565,-4.134 2.378,-2.756 1.191,-1.377 0,0"
             style="fill:#cbb897;fill-opacity:1;fill-rule:evenodd;stroke:none"
             id="path40" />
        </g>
        <g
           id="g42"
           transform="translate(64.7148,62.292)">
          <path
             d="m 0,0 c -0.084,-0.446 -0.17,-0.896 -0.252,-1.343 -0.814,0.666 -1.627,1.333 -2.443,1.999 0.072,0.042 0.141,0.084 0.21,0.131 0.568,-0.084 1.132,-0.162 1.699,-0.25 C -0.524,0.361 -0.262,0.18 0,0"
             style="fill:#cbb897;fill-opacity:1;fill-rule:evenodd;stroke:none"
             id="path44" />
        </g>
        <g
           id="g46"
           transform="translate(85.6836,54.5488)">
          <path
             d="m 0,0 c -0.553,0.059 -1.104,0.114 -1.656,0.171 0.145,0.225 0.272,0.625 0.442,0.643 C 0.288,0.969 1.796,1.056 3.3,1.162 3.094,0.956 2.884,0.751 2.675,0.543 2.241,0.446 1.808,0.347 1.373,0.246 1.09,0.242 0.808,0.235 0.524,0.227 0.354,0.144 0.186,0.062 0.017,-0.021 Z"
             style="fill:#cbb897;fill-opacity:1;fill-rule:evenodd;stroke:none"
             id="path48" />
        </g>
        <g
           id="g50"
           transform="translate(70.9995,145.5576)">
          <path
             d="M 0,0 C 1.434,0.443 1.115,-1.154 1.887,-1.504 0.966,-1.522 -0.333,-2.184 -0.057,-0.37 -0.036,-0.248 -0.018,-0.123 0,0"
             style="fill:#d2b88c;fill-opacity:1;fill-rule:evenodd;stroke:none"
             id="path52" />
        </g>
        <g
           id="g54"
           transform="translate(68.02,58.3096)">
          <path
             d="M 0,0 C 1.365,-0.635 2.73,-1.271 4.096,-1.91 3.535,-1.81 2.973,-1.705 2.41,-1.603 1.607,-1.068 0.804,-0.533 0,0"
             style="fill:#cbb897;fill-opacity:1;fill-rule:evenodd;stroke:none"
             id="path56" />
        </g>
        <g
           id="g58"
           transform="translate(65.6357,59.9307)">
          <path
             d="M 0,0 C 0.907,-0.381 2.732,0.581 2.386,-1.631 1.59,-1.089 0.796,-0.543 0,0"
             style="fill:#cbb897;fill-opacity:1;fill-rule:evenodd;stroke:none"
             id="path60" />
        </g>
        <g
           id="g62"
           transform="translate(88.9937,55.6963)">
          <path
             d="M 0,0 C 0.412,1.552 1.491,0.472 2.266,0.578 1.514,0.388 0.756,0.197 0,0"
             style="fill:#cbb897;fill-opacity:1;fill-rule:evenodd;stroke:none"
             id="path64" />
        </g>
        <g
           id="g66"
           transform="translate(64.458,60.9355)">
          <path
             d="M 0,0 C 0.688,0.004 1.365,-0.007 1.164,-1.018 0.777,-0.677 0.389,-0.339 0,0"
             style="fill:#cbb897;fill-opacity:1;fill-rule:evenodd;stroke:none"
             id="path68" />
        </g>
        <g
           id="g70"
           transform="translate(108.2852,144.9966)">
          <path
             d="M 0,0 C -0.091,0.312 -0.184,0.623 -0.276,0.935 -0.184,0.623 -0.091,0.312 0,0"
             style="fill:#cbb897;fill-opacity:1;fill-rule:evenodd;stroke:none"
             id="path72" />
        </g>
        <g
           id="g74"
           transform="translate(85.7007,54.5283)">
          <path
             d="M 0,0 C 0.168,0.083 0.337,0.164 0.507,0.247 0.337,0.164 0.168,0.083 0,0"
             style="fill:#fbf6e0;fill-opacity:1;fill-rule:evenodd;stroke:none"
             id="path76" />
        </g>
        <g
           id="g78"
           transform="translate(62.0996,113.4282)">
          <path
             d="M 0,0 C 1.021,1.147 1.938,2.409 3.097,3.393 3.635,3.849 4.846,4.127 5.362,3.822 5.905,3.5 6.267,2.369 6.207,1.631 6.089,0.24 5.613,-1.121 5.287,-2.494 4.884,-4.167 4.483,-5.84 4.08,-7.513 3.852,-8.207 3.624,-8.903 3.395,-9.6 c -0.553,-2.834 -1.213,-5.654 -1.612,-8.511 -0.198,-1.416 0.084,-2.897 0.147,-4.35 -0.036,-0.262 -0.07,-0.522 -0.106,-0.786 -0.127,-2.006 -0.252,-4.014 -0.377,-6.02 -0.053,-1.27 0.044,-2.571 -0.215,-3.797 -0.15,-0.717 -0.818,-1.794 -1.346,-1.848 -0.749,-0.079 -2.011,0.429 -2.299,1.042 -0.795,1.7 -1.198,3.586 -1.757,5.399 -0.133,1.687 -0.366,3.373 -0.381,5.061 -0.049,5.276 0.594,10.474 2.037,15.553 C -1.764,-5.212 -0.843,-2.618 0,0"
             style="fill:#fbf6e0;fill-opacity:1;fill-rule:evenodd;stroke:none"
             id="path80" />
        </g>
        <g
           id="g82"
           transform="translate(62.0996,113.4282)">
          <path
             d="m 0,0 c -0.843,-2.618 -1.764,-5.212 -2.514,-7.857 -1.443,-5.079 -2.086,-10.277 -2.037,-15.553 0.015,-1.688 0.248,-3.374 0.381,-5.061 -1.551,0.128 -2.23,1.102 -2.073,3.158 0.093,1.205 0.328,2.403 0.501,3.603 0.922,6.432 1.846,12.865 2.77,19.294 C -2.626,-0.012 -2.621,-0.013 0,0"
             style="fill:#e4d2a8;fill-opacity:1;fill-rule:evenodd;stroke:none"
             id="path84" />
        </g>
        <g
           id="g86"
           transform="translate(64.0298,90.9673)">
          <path
             d="M 0,0 C -0.063,1.453 -0.345,2.934 -0.147,4.35 0.251,7.207 0.912,10.027 1.464,12.861 1.525,12.323 1.7,11.766 1.627,11.245 1.112,7.492 0.548,3.747 0,0"
             style="fill:#e4d2a8;fill-opacity:1;fill-rule:evenodd;stroke:none"
             id="path88" />
        </g>
        <g
           id="g90"
           transform="translate(63.5469,84.1611)">
          <path
             d="M 0,0 C 0.125,2.006 0.25,4.014 0.377,6.02 1.349,3.946 0.987,1.953 0,0"
             style="fill:#e4d2a8;fill-opacity:1;fill-rule:evenodd;stroke:none"
             id="path92" />
        </g>
        <g
           id="g94"
           transform="translate(66.1797,105.9155)">
          <path
             d="M 0,0 C 0.403,1.673 0.804,3.345 1.207,5.019 1.062,3.417 0.931,1.812 0.74,0.216 0.729,0.116 0.258,0.071 0,0"
             style="fill:#e4d2a8;fill-opacity:1;fill-rule:evenodd;stroke:none"
             id="path96" />
        </g>
        <g
           id="g98"
           transform="translate(103.0264,104.2354)">
          <path
             d="M 0,0 C 0.44,-0.646 0.874,-1.294 1.309,-1.942 1.143,-2.077 0.974,-2.215 0.804,-2.35 0.297,-1.754 -0.209,-1.157 -0.717,-0.561 -0.477,-0.375 -0.233,-0.187 0,0"
             style="fill:#d2b88c;fill-opacity:1;fill-rule:evenodd;stroke:none"
             id="path100" />
        </g>
        <g
           id="g102"
           transform="translate(74.7266,141.1265)">
          <path
             d="M 0,0 C -0.197,0.074 -0.509,0.095 -0.57,0.231 -0.709,0.543 -0.726,0.908 -0.792,1.251 -0.538,1.05 -0.24,0.881 -0.045,0.631 0.065,0.494 0.002,0.224 0.018,0.013 Z"
             style="fill:#d2b88c;fill-opacity:1;fill-rule:evenodd;stroke:none"
             id="path104" />
        </g>
        <g
           id="g106"
           transform="translate(74.7441,141.1392)">
          <path
             d="M 0,0 C 0.196,-0.074 0.51,-0.096 0.569,-0.231 0.708,-0.542 0.724,-0.908 0.79,-1.253 0.537,-1.049 0.238,-0.88 0.044,-0.63 c -0.108,0.138 -0.046,0.409 -0.062,0.617 z"
             style="fill:#d2b88c;fill-opacity:1;fill-rule:evenodd;stroke:none"
             id="path108" />
        </g>
        <g
           id="g110"
           transform="translate(77.6411,137.2363)">
          <path
             d="M 0,0 C -0.199,0.074 -0.513,0.096 -0.57,0.231 -0.709,0.543 -0.727,0.908 -0.793,1.253 -0.539,1.049 -0.241,0.88 -0.047,0.631 0.061,0.495 0.001,0.225 0.018,0.013 Z"
             style="fill:#d2b88c;fill-opacity:1;fill-rule:evenodd;stroke:none"
             id="path112" />
        </g>
        <g
           id="g114"
           transform="translate(77.6587,137.2495)">
          <path
             d="m 0,0 c 0.196,-0.075 0.507,-0.097 0.569,-0.233 0.139,-0.311 0.154,-0.677 0.221,-1.02 -0.256,0.204 -0.552,0.372 -0.747,0.622 -0.108,0.136 -0.045,0.407 -0.061,0.618 z"
             style="fill:#d2b88c;fill-opacity:1;fill-rule:evenodd;stroke:none"
             id="path116" />
        </g>
        <g
           id="g118"
           transform="translate(80.5542,133.3462)">
          <path
             d="M 0,0 C -0.198,0.073 -0.511,0.095 -0.571,0.231 -0.71,0.542 -0.727,0.91 -0.794,1.251 -0.539,1.049 -0.242,0.879 -0.045,0.632 0.063,0.494 0.001,0.223 0.016,0.013 Z"
             style="fill:#d2b88c;fill-opacity:1;fill-rule:evenodd;stroke:none"
             id="path120" />
        </g>
        <g
           id="g122"
           transform="translate(80.5703,133.3594)">
          <path
             d="m 0,0 c 0.199,-0.074 0.509,-0.097 0.569,-0.232 0.139,-0.311 0.156,-0.677 0.223,-1.021 -0.256,0.202 -0.552,0.374 -0.747,0.62 -0.108,0.14 -0.046,0.41 -0.061,0.62 z"
             style="fill:#d2b88c;fill-opacity:1;fill-rule:evenodd;stroke:none"
             id="path124" />
        </g>
        <g
           id="g126"
           transform="translate(83.4658,129.4561)">
          <path
             d="M 0,0 C -0.196,0.073 -0.509,0.095 -0.569,0.229 -0.709,0.542 -0.725,0.909 -0.792,1.252 -0.538,1.049 -0.24,0.879 -0.045,0.63 0.063,0.494 0.003,0.224 0.018,0.014 Z"
             style="fill:#d2b88c;fill-opacity:1;fill-rule:evenodd;stroke:none"
             id="path128" />
        </g>
        <g
           id="g130"
           transform="translate(83.4839,129.4697)">
          <path
             d="m 0,0 c 0.197,-0.075 0.509,-0.098 0.568,-0.232 0.14,-0.312 0.155,-0.678 0.222,-1.022 -0.255,0.203 -0.549,0.373 -0.746,0.622 -0.106,0.137 -0.045,0.409 -0.062,0.618 z"
             style="fill:#d2b88c;fill-opacity:1;fill-rule:evenodd;stroke:none"
             id="path132" />
        </g>
        <g
           id="g134"
           transform="translate(86.3823,125.5669)">
          <path
             d="M 0,0 C -0.198,0.072 -0.513,0.094 -0.572,0.229 -0.712,0.541 -0.728,0.906 -0.794,1.25 -0.541,1.049 -0.243,0.879 -0.049,0.63 0.06,0.493 0.001,0.221 0.014,0.012 Z"
             style="fill:#d2b88c;fill-opacity:1;fill-rule:evenodd;stroke:none"
             id="path136" />
        </g>
        <g
           id="g138"
           transform="translate(86.3965,125.5791)">
          <path
             d="M 0,0 C 0.198,-0.074 0.512,-0.097 0.57,-0.231 0.707,-0.543 0.727,-0.91 0.791,-1.252 0.539,-1.051 0.24,-0.88 0.047,-0.63 c -0.11,0.135 -0.048,0.406 -0.061,0.618 z"
             style="fill:#d2b88c;fill-opacity:1;fill-rule:evenodd;stroke:none"
             id="path140" />
        </g>
        <g
           id="g142"
           transform="translate(89.292,121.6763)">
          <path
             d="M 0,0 C -0.196,0.073 -0.507,0.094 -0.57,0.229 -0.706,0.543 -0.724,0.908 -0.79,1.252 -0.538,1.048 -0.24,0.879 -0.043,0.63 0.064,0.493 0.003,0.222 0.019,0.012 Z"
             style="fill:#d2b88c;fill-opacity:1;fill-rule:evenodd;stroke:none"
             id="path144" />
        </g>
        <g
           id="g146"
           transform="translate(89.3105,121.688)">
          <path
             d="m 0,0 c 0.197,-0.073 0.51,-0.098 0.57,-0.23 0.139,-0.313 0.155,-0.678 0.22,-1.023 -0.255,0.204 -0.551,0.374 -0.747,0.622 -0.108,0.139 -0.045,0.41 -0.062,0.619 z"
             style="fill:#d2b88c;fill-opacity:1;fill-rule:evenodd;stroke:none"
             id="path148" />
        </g>
        <g
           id="g150"
           transform="translate(92.208,117.7842)">
          <path
             d="M 0,0 C -0.201,0.075 -0.512,0.097 -0.57,0.233 -0.711,0.543 -0.727,0.909 -0.793,1.253 -0.537,1.052 -0.242,0.882 -0.05,0.633 0.061,0.495 0.002,0.225 0.015,0.015 Z"
             style="fill:#d2b88c;fill-opacity:1;fill-rule:evenodd;stroke:none"
             id="path152" />
        </g>
        <g
           id="g154"
           transform="translate(92.2227,117.7993)">
          <path
             d="M 0,0 C 0.202,-0.074 0.508,-0.098 0.57,-0.233 0.71,-0.545 0.728,-0.91 0.792,-1.254 0.537,-1.05 0.241,-0.882 0.046,-0.632 -0.064,-0.494 0,-0.224 -0.015,-0.015 Z"
             style="fill:#d2b88c;fill-opacity:1;fill-rule:evenodd;stroke:none"
             id="path156" />
        </g>
        <g
           id="g158"
           transform="translate(95.1211,113.896)">
          <path
             d="m 0,0 c -0.2,0.072 -0.51,0.094 -0.571,0.231 -0.14,0.311 -0.157,0.677 -0.225,1.02 0.257,-0.203 0.553,-0.374 0.75,-0.62 0.11,-0.137 0.049,-0.409 0.063,-0.62 z"
             style="fill:#d2b88c;fill-opacity:1;fill-rule:evenodd;stroke:none"
             id="path160" />
        </g>
        <g
           id="g162"
           transform="translate(95.1377,113.9067)">
          <path
             d="m 0,0 c 0.196,-0.072 0.509,-0.095 0.569,-0.231 0.138,-0.311 0.156,-0.676 0.219,-1.02 -0.254,0.204 -0.548,0.371 -0.744,0.622 -0.107,0.137 -0.045,0.407 -0.061,0.618 z"
             style="fill:#d2b88c;fill-opacity:1;fill-rule:evenodd;stroke:none"
             id="path164" />
        </g>
        <g
           id="g166"
           transform="translate(98.0342,110.0044)">
          <path
             d="M 0,0 C -0.199,0.074 -0.512,0.096 -0.568,0.23 -0.708,0.542 -0.725,0.909 -0.794,1.252 -0.538,1.05 -0.242,0.88 -0.044,0.631 0.061,0.494 0.004,0.224 0.019,0.013 Z"
             style="fill:#d2b88c;fill-opacity:1;fill-rule:evenodd;stroke:none"
             id="path168" />
        </g>
        <g
           id="g170"
           transform="translate(98.0527,110.0176)">
          <path
             d="m 0,0 c 0.195,-0.072 0.507,-0.098 0.569,-0.233 0.14,-0.311 0.151,-0.676 0.22,-1.019 -0.254,0.202 -0.551,0.372 -0.746,0.621 -0.107,0.139 -0.046,0.409 -0.062,0.618 z"
             style="fill:#d2b88c;fill-opacity:1;fill-rule:evenodd;stroke:none"
             id="path172" />
        </g>
        <g
           id="g174"
           transform="translate(100.9473,106.1152)">
          <path
             d="M 0,0 C -0.195,0.072 -0.513,0.096 -0.57,0.229 -0.709,0.54 -0.726,0.906 -0.793,1.252 -0.539,1.049 -0.241,0.88 -0.045,0.632 0.062,0.493 0.003,0.223 0.015,0.012 Z"
             style="fill:#d2b88c;fill-opacity:1;fill-rule:evenodd;stroke:none"
             id="path176" />
        </g>
        <g
           id="g178"
           transform="translate(100.9619,106.1274)">
          <path
             d="m 0,0 c 0.2,-0.073 0.513,-0.097 0.574,-0.233 0.135,-0.31 0.153,-0.676 0.22,-1.02 -0.256,0.205 -0.553,0.374 -0.748,0.623 -0.106,0.137 -0.045,0.407 -0.061,0.618 z"
             style="fill:#d2b88c;fill-opacity:1;fill-rule:evenodd;stroke:none"
             id="path180" />
        </g>
        <g
           id="g182"
           transform="translate(63.9287,62.8291)">
          <path
             d="m 0,0 c -0.567,0.088 -1.131,0.166 -1.699,0.25 0.038,0.275 0.078,0.554 0.116,0.829 C -1.057,0.721 -0.527,0.361 0,0"
             style="fill:#d2b88c;fill-opacity:1;fill-rule:evenodd;stroke:none"
             id="path184" />
        </g>
        <g
           id="g186"
           transform="translate(74.5693,55.249)">
          <path
             d="M 0,0 C -0.715,0.366 -1.428,0.733 -2.143,1.101 1.61,0.566 5.359,0.033 9.113,-0.501 6.022,-1.298 3.027,-0.334 0,0"
             style="fill:#cbb897;fill-opacity:1;fill-rule:evenodd;stroke:none"
             id="path188" />
        </g>
        <g
           id="g190"
           transform="translate(95.6729,122.6035)">
          <path
             d="m 0,0 c -0.051,-0.035 -0.126,-0.059 -0.143,-0.105 -0.012,-0.036 0.052,-0.098 0.081,-0.147 0.076,0.061 0.152,0.119 0.227,0.181 C 0.109,-0.048 0.056,-0.024 0,0 m 21.575,-22.933 c 0.136,-8.656 -2.665,-16.85 -3.971,-25.28 4.054,7.994 6.414,16.257 3.971,25.28 M 4.249,-61.389 c 7.185,12.548 9.889,25.968 7.135,40.349 -0.856,-6.747 -1.209,-13.579 -2.37,-20.271 -1.172,-6.763 -3.143,-13.392 -4.765,-20.078 m -12.075,2.413 c -2.822,13.569 -3.659,27.29 -3.142,41.111 -4.113,-14.061 -3.061,-27.767 3.142,-41.111 m -4.268,85.033 c -0.857,-1.58 -1.855,-3.102 -2.545,-4.753 -1.822,-4.365 -2.442,-9.029 -2.764,-13.687 -0.173,-2.48 0.375,-5.012 0.599,-7.52 0.148,-0.001 0.296,-0.001 0.444,-0.003 0.079,0.239 0.211,0.473 0.23,0.717 0.267,3.222 0.439,6.456 0.797,9.67 0.27,2.415 0.681,4.825 1.19,7.204 0.6,2.803 1.371,5.572 2.069,8.356 0.11,0.14 0.22,0.28 0.331,0.42 -0.075,0.048 -0.149,0.097 -0.225,0.144 -0.042,-0.183 -0.085,-0.365 -0.126,-0.548 M -1.266,-2.965 c 0.143,0.301 0.286,0.605 0.427,0.907 0.002,0.278 0.002,0.553 0.003,0.83 0.063,0.071 0.124,0.14 0.186,0.209 -0.067,-0.064 -0.134,-0.127 -0.203,-0.193 -0.709,-0.741 -1.418,-1.481 -2.126,-2.221 L -2.988,-3.437 C -3.276,-3.584 -3.563,-3.733 -3.852,-3.88 l 0.004,0.003 C -3.987,-4.168 -4.128,-4.461 -4.27,-4.752 L -4.271,-4.76 C -4.985,-5.494 -5.7,-6.227 -6.413,-6.96 L -6.425,-6.964 C -6.713,-7.111 -7,-7.26 -7.288,-7.408 l 0.007,0.004 C -7.423,-7.695 -7.564,-7.986 -7.706,-8.28 v -0.006 c -0.715,-0.734 -1.432,-1.469 -2.149,-2.202 l 0.006,0.009 c -0.148,0.958 -0.51,1.942 -0.409,2.873 0.564,5.141 1.154,10.281 1.898,15.398 0.941,6.469 2.02,12.918 3.076,19.369 0.403,2.453 0.911,4.888 1.369,7.333 -0.177,0.027 -0.354,0.053 -0.529,0.08 -4.952,-14.754 -7.997,-29.786 -6.277,-45.511 l 0.005,0.011 c -0.144,-0.296 -0.29,-0.592 -0.435,-0.887 l 0.008,0.005 c -0.571,-0.589 -1.145,-1.178 -1.716,-1.765 v 0.002 c -0.433,-0.298 -0.867,-0.593 -1.302,-0.89 l 0.009,0.005 c -0.867,-0.879 -1.733,-1.761 -2.599,-2.642 -0.441,0.286 -0.881,0.572 -1.322,0.858 0.099,1.647 0.317,3.298 0.238,4.936 -0.031,0.671 -0.592,1.717 -1.114,1.863 -0.662,0.183 -1.718,-0.173 -2.264,-0.668 -0.826,-0.747 -1.355,-1.818 -2.011,-2.751 -2.591,-1.019 -1.396,-3.653 -2.223,-5.47 -0.78,2.462 -0.129,5.032 -0.875,7.406 -0.562,-1.217 -1.257,-2.401 -1.27,-3.593 -0.057,-5.281 0.097,-10.565 0.14,-15.849 0.008,-0.968 0.437,-1.298 1.326,-1.215 0.191,-0.576 0.381,-1.149 0.573,-1.724 0.114,-0.55 0.231,-1.101 0.342,-1.653 0.642,-3.168 1.075,-6.396 2.003,-9.479 0.494,-1.64 1.644,-3.21 2.854,-4.476 1.283,-1.342 2.561,-0.834 2.781,1.024 0.185,1.539 -0.041,3.128 -0.083,4.693 -0.058,2.243 -0.02,4.495 -0.203,6.725 -0.139,1.675 -0.564,3.323 -0.863,4.983 0.243,3.926 0.486,7.852 0.73,11.777 0.421,0.448 0.841,0.899 1.264,1.347 -0.002,0.135 0.002,0.27 0.011,0.403 0.285,0.151 0.568,0.298 0.852,0.45 l -0.005,-0.004 c 0.289,0.15 0.579,0.299 0.869,0.449 l -0.004,-0.005 c 0.141,0.293 0.283,0.586 0.426,0.879 l -0.004,-0.003 c 0.145,0.147 0.29,0.296 0.432,0.443 l -0.004,0.003 c 1.717,1.765 3.436,3.529 5.154,5.292 L -9,-10.461 c 0.29,0.149 0.58,0.3 0.871,0.45 l -0.008,-0.008 c 0.142,0.294 0.283,0.586 0.425,0.881 l -0.001,10e-4 c 0.715,0.734 1.432,1.471 2.148,2.206 v -0.004 c 0.29,0.151 0.581,0.3 0.873,0.45 l -0.009,-0.008 c 0.142,0.293 0.285,0.589 0.426,0.883 L -4.28,-5.612 c 0.717,0.737 1.434,1.473 2.151,2.209 v -0.003 c 0.29,0.149 0.582,0.298 0.871,0.448 z M 9.464,8.493 C 9.609,8.641 9.753,8.79 9.896,8.938 H 9.891 c 0.43,0.441 0.859,0.883 1.289,1.325 l 10e-4,-0.006 c 0.142,0.148 0.287,0.295 0.432,0.443 0.292,0.152 0.585,0.302 0.876,0.452 l -0.018,-0.013 c 0.137,0.007 0.277,0.019 0.413,0.036 0.755,-10.467 1.511,-20.93 2.259,-31.301 0.016,0.022 0.266,0.228 0.286,0.457 0.415,4.439 0.951,8.875 1.138,13.323 0.117,2.795 -0.249,5.615 -0.492,8.415 -0.282,3.296 -0.653,6.585 -1.02,9.875 -0.034,0.29 -0.32,0.783 -0.492,0.785 -0.945,0.013 -0.597,0.319 -0.378,0.878 0.205,0.524 0.136,1.194 0.054,1.781 -0.129,0.993 -0.291,1.996 -0.573,2.954 -0.582,1.978 -1.255,3.929 -1.89,5.891 0.036,-3.379 0.451,-6.651 0.823,-9.927 0.056,-0.466 -0.083,-0.953 -0.134,-1.431 -0.43,-0.581 -0.864,-1.164 -1.295,-1.745 -0.427,-0.301 -0.856,-0.603 -1.282,-0.903 l 0.006,10e-4 C 9.04,9.201 8.183,8.173 7.325,7.146 L 7.318,7.145 C 7.028,6.997 6.74,6.848 6.454,6.7 L 6.459,6.706 C 6.318,6.414 6.176,6.12 6.033,5.827 V 5.822 C 4.742,5.66 4.249,4.869 4.318,3.638 4.191,3.628 4.062,3.625 3.934,3.629 3.768,4.075 3.457,4.522 3.457,4.968 3.486,14.439 3.098,23.886 1.721,33.264 1.229,36.602 0.482,39.902 -0.147,43.219 -0.319,43.187 -0.491,43.154 -0.665,43.122 -0.474,41.93 -0.191,40.744 -0.105,39.544 0.297,34.006 0.887,28.468 0.961,22.923 1.143,8.807 1.086,-5.312 1.112,-19.43 c 0.002,-0.496 -0.186,-0.99 -0.216,-1.49 -0.175,-2.719 -0.327,-5.44 -0.487,-8.16 1.692,5.699 3.392,18.529 3.055,31.399 0.425,0.443 0.85,0.887 1.278,1.331 L 4.741,3.648 c 0.29,0.148 0.581,0.298 0.87,0.447 L 5.604,4.089 c 0.142,0.293 0.284,0.587 0.424,0.88 L 6.027,4.973 C 6.742,5.707 7.459,6.442 8.176,7.177 L 8.175,7.174 C 8.466,7.323 8.758,7.473 9.047,7.623 L 9.039,7.614 c 0.143,0.294 0.285,0.589 0.427,0.883 z m -20.736,27.565 c 2.287,3.069 4.573,6.139 6.858,9.209 1.524,-0.471 1.495,1.2 2.313,1.729 0.965,0.623 2.933,0.724 2.913,-0.07 -0.044,-1.496 1.016,-1.174 1.69,-1.535 0.503,-0.867 0.802,-2.057 1.555,-2.534 2.136,-1.355 2.478,-3.826 3.85,-5.642 1.239,-1.635 1.99,-3.652 2.861,-5.546 1.826,-3.974 3.675,-7.938 5.304,-11.991 0.365,-0.909 0.268,-2.502 -0.316,-3.192 -1.134,-1.338 -0.031,-1.417 0.678,-2.163 0.251,0.968 0.432,1.664 0.615,2.361 0.554,-0.947 0.732,-1.894 1.002,-2.816 1.147,-3.93 2.294,-7.861 3.493,-11.775 2.355,-7.664 3.656,-15.561 4.298,-23.495 0.487,-6.068 0.679,-12.209 -0.808,-18.318 -1.515,-6.249 -3.987,-11.856 -8.163,-16.753 -4.911,-5.756 -11.017,-9.116 -18.621,-9.623 0.573,1.844 1.244,3.664 1.697,5.54 1.353,5.585 1.418,11.236 0.589,16.904 -0.079,0.531 -0.367,1.033 -0.706,1.947 -0.87,-8.608 -0.713,-16.846 -2.879,-24.813 -4.69,0.385 -9.354,0.85 -13.496,3.433 -0.415,0.259 -1.095,0.093 -1.652,0.125 -1.235,1.287 -2.469,2.572 -3.702,3.859 0.235,1.22 -0.201,2.122 -1.047,3.056 -0.965,1.069 -1.695,2.374 -2.39,3.651 -0.585,1.077 -0.971,2.256 -1.443,3.392 -1.884,5.636 -3.702,11.281 -3.272,17.354 1.259,-0.127 1.845,0.299 1.757,1.705 -0.15,2.405 -0.451,4.762 -0.838,7.147 -0.442,2.728 -0.661,5.65 0.5,8.507 0.737,1.813 0.561,3.98 0.926,5.967 0.393,2.139 0.926,4.253 1.429,6.369 0.308,1.293 1.033,2.595 0.944,3.849 -0.173,2.406 2.409,3.843 1.939,6.264 -0.018,0.095 0.519,0.236 0.673,0.445 0.195,0.268 0.454,0.719 0.351,0.932 -0.708,1.476 0.445,2.616 0.652,3.915 0.207,1.301 0.642,2.566 0.976,3.846 l -0.02,0.003 c 0.842,-0.137 1.224,0.089 1.43,1.06 0.269,1.263 0.599,2.833 1.484,3.571 1.441,1.198 1.354,2.315 0.818,3.734 l 0.012,-0.002 c 1.214,0.178 0.989,1.066 0.925,1.874 -0.05,0.083 -0.032,0.149 0.052,0.195 0.64,0.013 1.689,1.504 1.812,-0.527 0.011,-0.192 0.97,-0.327 1.49,-0.49 -0.118,0.63 -0.037,1.425 -0.394,1.857 -1.07,1.297 -1.083,2.091 0.195,3.274 0.183,0.169 0.218,0.5 0.321,0.757 0.615,0.78 1.286,1.526 1.801,2.367 0.12,0.197 -0.289,0.717 -0.456,1.087"
             style="fill:#ca7b3d;fill-opacity:1;fill-rule:evenodd;stroke:none"
             id="path192" />
        </g>
        <g
           id="g194"
           transform="translate(114.1553,140.3599)">
          <path
             d="m 0,0 c -0.063,-0.071 -0.123,-0.14 -0.187,-0.211 0.067,0.065 0.136,0.129 0.204,0.194 0.06,0.068 0.125,0.136 0.184,0.205 C 0.133,0.125 0.068,0.062 0,0 m -36.679,-80.716 c 0.557,-0.033 1.237,0.133 1.651,-0.125 4.143,-2.583 8.807,-3.048 13.497,-3.433 0.748,-0.832 0.972,-0.047 1.299,0.422 7.603,0.507 13.71,3.867 18.621,9.623 4.175,4.896 6.647,10.504 8.163,16.753 1.487,6.108 1.295,12.249 0.807,18.318 -0.641,7.934 -1.942,15.83 -4.297,23.494 -1.2,3.915 -2.346,7.846 -3.494,11.775 -0.269,0.922 -0.448,1.869 -1.002,2.816 -0.182,-0.697 -0.364,-1.393 -0.615,-2.36 -0.709,0.746 -1.811,0.825 -0.678,2.163 0.584,0.69 0.682,2.283 0.317,3.191 -1.629,4.054 -3.479,8.018 -5.305,11.992 -0.87,1.893 -1.621,3.91 -2.86,5.546 -1.372,1.815 -1.714,4.287 -3.851,5.642 -0.753,0.477 -1.052,1.667 -1.554,2.533 0.335,0.006 0.671,0.012 1.009,0.017 4.416,-4.341 7.69,-9.523 10.825,-14.798 C -3.009,10.937 -2.037,8.918 -0.99,6.948 -1.364,5.559 -0.783,4.252 0.52,3.556 L 0.479,3.589 C 0.253,2.013 0.783,0.801 2.201,0.019 4.009,-4.886 5.816,-9.79 7.622,-14.696 c -0.297,-1.913 -0.02,-2.827 1.034,-3.433 0.073,-0.166 0.148,-0.329 0.219,-0.495 0.034,-0.573 0.067,-1.148 0.1,-1.723 0.176,-1.397 0.296,-2.807 0.567,-4.185 0.075,-0.36 0.634,-0.621 0.973,-0.929 l -0.075,-0.016 c -0.014,-1.183 -0.026,-2.367 -0.041,-3.55 0.144,-0.429 0.287,-0.856 0.429,-1.284 0.65,-4.534 1.609,-9.049 1.864,-13.606 0.283,-5.021 -0.076,-10.078 -0.155,-15.119 -0.26,-1.181 -0.519,-2.363 -0.778,-3.544 -0.06,0.183 -0.119,0.365 -0.179,0.548 -0.088,-0.036 -0.178,-0.071 -0.267,-0.108 0.125,-0.279 0.249,-0.557 0.371,-0.836 -0.123,-0.441 -0.247,-0.879 -0.372,-1.317 -0.067,0.192 -0.137,0.384 -0.204,0.576 -0.05,-0.026 -0.145,-0.058 -0.142,-0.067 0.083,-0.309 0.177,-0.61 0.266,-0.916 -0.234,-0.617 -0.47,-1.235 -0.705,-1.854 -0.152,-0.336 -0.301,-0.678 -0.451,-1.017 -0.555,-1.24 -1.111,-2.479 -1.665,-3.72 -1.024,-0.015 -0.973,-0.672 -0.821,-1.383 l 0.02,0.017 c -0.278,-0.456 -0.56,-0.911 -0.839,-1.367 h 0.01 c -1.28,0.143 -0.937,-0.772 -0.945,-1.452 -0.265,-0.366 -0.531,-0.732 -0.797,-1.098 -0.287,-0.314 -0.571,-0.632 -0.857,-0.945 l -0.027,0.058 c -0.149,-0.229 -0.297,-0.457 -0.446,-0.685 -1.287,-1.234 -2.576,-2.466 -3.863,-3.7 -0.443,-0.057 -0.997,0.034 -1.306,-0.197 -2.735,-2.075 -5.703,-3.615 -9.091,-4.32 -0.359,-0.073 -0.626,-0.594 -0.935,-0.906 l -0.171,0.036 c -1.096,-0.278 -2.498,0.736 -3.303,-0.778 l 0.042,-0.153 c -2.301,0.045 -4.603,0.088 -6.905,0.135 -0.022,0.084 -0.052,0.162 -0.089,0.239 -1.803,0.713 -3.585,1.479 -5.413,2.119 -0.964,0.338 -2.005,0.452 -3.011,0.666 l -0.04,-0.009 c -0.396,1.047 -2.043,1.986 -3.34,1.906 -0.47,0.261 -0.938,0.525 -1.407,0.786 -0.518,0.535 -1.037,1.071 -1.556,1.606"
             style="fill:#bd6933;fill-opacity:1;fill-rule:evenodd;stroke:none"
             id="path196" />
        </g>
        <g
           id="g198"
           transform="translate(74.9312,139.9019)">
          <path
             d="m 0,0 c -0.334,-1.281 -0.769,-2.545 -0.976,-3.847 -0.207,-1.298 -1.36,-2.439 -0.652,-3.914 0.103,-0.213 -0.156,-0.665 -0.351,-0.932 -0.154,-0.21 -0.691,-0.35 -0.673,-0.446 0.47,-2.421 -2.112,-3.857 -1.94,-6.263 0.09,-1.254 -0.635,-2.556 -0.944,-3.849 -0.503,-2.117 -1.035,-4.23 -1.428,-6.37 -0.366,-1.986 -0.189,-4.153 -0.926,-5.966 -1.162,-2.858 -0.943,-5.78 -0.5,-8.507 0.387,-2.385 0.688,-4.742 0.838,-7.147 0.088,-1.406 -0.498,-1.832 -1.758,-1.705 h 0.004 c -0.02,1.853 0,3.705 -0.089,5.554 -0.022,0.475 -0.389,0.935 -0.598,1.405 0.826,5.99 1.442,12.017 2.529,17.959 1.44,7.879 3.832,15.516 6.838,22.948 C -0.472,-0.696 -0.21,-0.358 0,0"
             style="fill:#c67c45;fill-opacity:1;fill-rule:evenodd;stroke:none"
             id="path200" />
        </g>
        <g
           id="g202"
           transform="translate(126.6924,81.3242)">
          <path
             d="m 0,0 c 0.079,5.041 0.437,10.098 0.155,15.119 -0.256,4.557 -1.215,9.071 -1.864,13.606 -0.143,0.427 -0.285,0.855 -0.429,1.284 0.015,1.183 0.027,2.366 0.041,3.55 0.761,-3.927 1.524,-7.854 2.286,-11.782 0.116,-0.731 0.23,-1.463 0.344,-2.195 C 1.28,13.605 1.328,7.631 0.402,1.668 0.315,1.104 0.135,0.556 0,0"
             style="fill:#a16139;fill-opacity:1;fill-rule:evenodd;stroke:none"
             id="path204" />
        </g>
        <g
           id="g206"
           transform="translate(65.6216,90.9556)">
          <path
             d="m 0,0 c -0.43,-6.073 1.389,-11.718 3.272,-17.354 -0.135,-0.295 -0.271,-0.587 -0.405,-0.882 -2.547,5.808 -3.61,11.909 -3.649,18.218 0.261,0.007 0.523,0.012 0.785,0.018 z"
             style="fill:#a16139;fill-opacity:1;fill-rule:evenodd;stroke:none"
             id="path208" />
        </g>
        <g
           id="g210"
           transform="translate(99.1846,168.0112)">
          <path
             d="m 0,0 c -0.338,-0.005 -0.674,-0.012 -1.01,-0.017 -0.674,0.361 -1.734,0.039 -1.69,1.536 0.02,0.794 -1.947,0.692 -2.912,0.069 -0.819,-0.529 -0.789,-2.2 -2.314,-1.729 0.406,0.494 0.788,1.011 1.22,1.476 C -3.949,4.279 -3.94,4.278 -1.07,1.298 -0.682,0.896 -0.354,0.434 0,0"
             style="fill:#a16139;fill-opacity:1;fill-rule:evenodd;stroke:none"
             id="path212" />
        </g>
        <g
           id="g214"
           transform="translate(106.0928,53.7969)">
          <path
             d="m 0,0 c -1.142,-0.235 -2.282,-0.469 -3.424,-0.706 0.31,0.312 0.576,0.833 0.936,0.906 C 0.899,0.905 3.867,2.445 6.603,4.52 6.911,4.751 7.466,4.66 7.908,4.717 5.271,3.145 2.635,1.573 0,0"
             style="fill:#a16139;fill-opacity:1;fill-rule:evenodd;stroke:none"
             id="path216" />
        </g>
        <g
           id="g218"
           transform="translate(73.7734,63.5029)">
          <path
             d="m 0,0 c -0.859,1.069 -1.72,2.138 -2.579,3.207 -0.805,1.756 -1.612,3.513 -2.418,5.268 0.052,0.138 0.003,0.232 -0.144,0.279 -0.048,0.154 -0.097,0.309 -0.144,0.463 0.135,0.295 0.27,0.587 0.405,0.882 C -4.407,8.963 -4.021,7.783 -3.437,6.707 -2.742,5.43 -2.011,4.125 -1.046,3.056 -0.201,2.121 0.235,1.22 0,0"
             style="fill:#c67c45;fill-opacity:1;fill-rule:evenodd;stroke:none"
             id="path220" />
        </g>
        <g
           id="g222"
           transform="translate(78.6431,148.2695)">
          <path
             d="M 0,0 C 0.536,-1.419 0.623,-2.536 -0.818,-3.734 -1.704,-4.472 -2.033,-6.042 -2.302,-7.305 -2.508,-8.276 -2.89,-8.502 -3.732,-8.365 -2.489,-5.577 -1.244,-2.788 0,0"
             style="fill:#c67c45;fill-opacity:1;fill-rule:evenodd;stroke:none"
             id="path224" />
        </g>
        <g
           id="g226"
           transform="translate(83.0562,155.207)">
          <path
             d="m 0,0 c -0.104,-0.257 -0.139,-0.587 -0.322,-0.756 -1.277,-1.184 -1.264,-1.977 -0.195,-3.274 0.357,-0.432 0.277,-1.228 0.394,-1.857 -0.519,0.162 -1.479,0.297 -1.49,0.489 -0.122,2.032 -1.171,0.54 -1.811,0.528 0.828,1.467 1.655,2.933 2.486,4.4 C -0.626,-0.314 -0.313,-0.156 0,0"
             style="fill:#c67c45;fill-opacity:1;fill-rule:evenodd;stroke:none"
             id="path228" />
        </g>
        <g
           id="g230"
           transform="translate(83.8193,55.3545)">
          <path
             d="M 0,0 C 1.006,-0.214 2.047,-0.327 3.011,-0.666 4.839,-1.306 6.621,-2.071 8.424,-2.784 5.423,-2.439 2.536,-1.748 0,0"
             style="fill:#a16139;fill-opacity:1;fill-rule:evenodd;stroke:none"
             id="path232" />
        </g>
        <g
           id="g234"
           transform="translate(65.625,90.9561)">
          <path
             d="M 0,0 C -0.263,-0.007 -0.524,-0.011 -0.786,-0.018 -0.753,2.307 -0.72,4.633 -0.687,6.958 -0.478,6.489 -0.111,6.029 -0.089,5.554 0,3.705 -0.02,1.853 0,0"
             style="fill:#ca7b3d;fill-opacity:1;fill-rule:evenodd;stroke:none"
             id="path236" />
        </g>
        <g
           id="g238"
           transform="translate(83.0562,155.207)">
          <path
             d="M 0,0 C -0.313,-0.156 -0.626,-0.314 -0.938,-0.47 -0.178,0.838 0.583,2.146 1.345,3.455 1.512,3.084 1.92,2.564 1.801,2.368 1.286,1.527 0.615,0.781 0,0"
             style="fill:#a16139;fill-opacity:1;fill-rule:evenodd;stroke:none"
             id="path240" />
        </g>
        <g
           id="g242"
           transform="translate(80.4395,57.252)">
          <path
             d="M 0,0 C 1.297,0.08 2.944,-0.859 3.339,-1.906 2.227,-1.27 1.112,-0.636 0,0"
             style="fill:#a16139;fill-opacity:1;fill-rule:evenodd;stroke:none"
             id="path244" />
        </g>
        <g
           id="g246"
           transform="translate(124.6699,114.8984)">
          <path
             d="M 0,0 C -0.339,0.308 -0.897,0.57 -0.973,0.929 -1.244,2.307 -1.363,3.718 -1.54,5.114 L -1.5,5.151 C -1.384,5.145 -1.269,5.135 -1.152,5.126 -0.968,4.411 -0.782,3.694 -0.599,2.977 -0.467,2.532 -0.335,2.086 -0.205,1.642 -0.137,1.094 -0.07,0.547 0,0"
             style="fill:#a16139;fill-opacity:1;fill-rule:evenodd;stroke:none"
             id="path248" />
        </g>
        <g
           id="g250"
           transform="translate(114.6748,143.916)">
          <path
             d="M 0,0 C -1.303,0.696 -1.884,2.002 -1.51,3.392 -1.036,2.524 -0.563,1.657 -0.09,0.789 -0.049,0.65 -0.006,0.511 0.034,0.371 0.027,0.248 0.014,0.124 0,0"
             style="fill:#a16139;fill-opacity:1;fill-rule:evenodd;stroke:none"
             id="path252" />
        </g>
        <g
           id="g254"
           transform="translate(122.8115,122.231)">
          <path
             d="M 0,0 C -1.055,0.605 -1.331,1.52 -1.034,3.433 -0.687,2.289 -0.342,1.143 0,0"
             style="fill:#a16139;fill-opacity:1;fill-rule:evenodd;stroke:none"
             id="path256" />
        </g>
        <g
           id="g258"
           transform="translate(116.3564,140.3789)">
          <path
             d="M 0,0 C -1.418,0.782 -1.948,1.994 -1.722,3.57 -1.586,3.567 -1.459,3.534 -1.339,3.469 -0.93,2.559 -0.52,1.65 -0.109,0.74 -0.072,0.494 -0.035,0.246 0,0"
             style="fill:#a16139;fill-opacity:1;fill-rule:evenodd;stroke:none"
             id="path260" />
        </g>
        <g
           id="g262"
           transform="translate(79.5801,150.1416)">
          <path
             d="M 0,0 C 0.064,-0.808 0.289,-1.696 -0.925,-1.875 -0.616,-1.249 -0.309,-0.625 0,0"
             style="fill:#c67c45;fill-opacity:1;fill-rule:evenodd;stroke:none"
             id="path264" />
        </g>
        <g
           id="g266"
           transform="translate(119.9912,64.8838)">
          <path
             d="M 0,0 C 0.008,0.68 -0.335,1.595 0.945,1.452 0.631,0.969 0.313,0.482 0,0"
             style="fill:#a16139;fill-opacity:1;fill-rule:evenodd;stroke:none"
             id="path268" />
        </g>
        <g
           id="g270"
           transform="translate(127.2256,100.9063)">
          <path
             d="M 0,0 C -0.114,0.732 -0.229,1.464 -0.344,2.195 -0.229,1.464 -0.114,0.732 0,0"
             style="fill:#e2995c;fill-opacity:1;fill-rule:evenodd;stroke:none"
             id="path272" />
        </g>
        <g
           id="g274"
           transform="translate(121.7451,67.6855)">
          <path
             d="M 0,0 C -0.151,0.711 -0.203,1.368 0.821,1.384 0.548,0.922 0.272,0.461 0,0"
             style="fill:#a16139;fill-opacity:1;fill-rule:evenodd;stroke:none"
             id="path276" />
        </g>
        <g
           id="g278"
           transform="translate(120.9258,66.3359)">
          <path
             d="M 0,0 C 0.279,0.456 0.562,0.911 0.84,1.367 0.562,0.911 0.279,0.456 0,0"
             style="fill:#a16139;fill-opacity:1;fill-rule:evenodd;stroke:none"
             id="path280" />
        </g>
        <g
           id="g282"
           transform="translate(123.1299,120.0127)">
          <path
             d="M 0,0 C -0.032,0.575 -0.065,1.15 -0.1,1.724 -0.009,1.606 0.026,1.474 0.003,1.327 0.018,0.898 0.026,0.469 0.04,0.037 Z"
             style="fill:#a16139;fill-opacity:1;fill-rule:evenodd;stroke:none"
             id="path284" />
        </g>
        <g
           id="g286"
           transform="translate(124.2314,72.7891)">
          <path
             d="M 0,0 C 0.149,0.339 0.299,0.681 0.451,1.017 0.299,0.681 0.149,0.339 0,0"
             style="fill:#a16139;fill-opacity:1;fill-rule:evenodd;stroke:none"
             id="path288" />
        </g>
        <g
           id="g290"
           transform="translate(125.3877,75.6602)">
          <path
             d="M 0,0 C -0.09,0.306 -0.184,0.606 -0.267,0.916 -0.27,0.925 -0.175,0.957 -0.124,0.982 -0.058,0.791 0.013,0.599 0.079,0.406 0.118,0.259 0.094,0.122 0,0"
             style="fill:#a16139;fill-opacity:1;fill-rule:evenodd;stroke:none"
             id="path292" />
        </g>
        <g
           id="g294"
           transform="translate(123.1699,120.0498)">
          <path
             d="M 0,0 C -0.014,0.432 -0.022,0.861 -0.037,1.29 0.09,0.852 0.22,0.415 0.348,-0.025 0.231,-0.016 0.116,-0.007 0,0"
             style="fill:#d4894a;fill-opacity:1;fill-rule:evenodd;stroke:none"
             id="path296" />
        </g>
        <g
           id="g298"
           transform="translate(125.8389,77.3838)">
          <path
             d="m 0,0 c -0.122,0.279 -0.246,0.557 -0.37,0.836 0.089,0.037 0.179,0.072 0.266,0.108 C -0.044,0.761 0.016,0.579 0.075,0.396 0.099,0.252 0.075,0.122 0,0"
             style="fill:#a16139;fill-opacity:1;fill-rule:evenodd;stroke:none"
             id="path300" />
        </g>
        <g
           id="g302"
           transform="translate(124.4648,116.54)">
          <path
             d="M 0,0 C -0.13,0.445 -0.262,0.89 -0.394,1.335 -0.262,0.89 -0.13,0.445 0,0"
             style="fill:#d2b88c;fill-opacity:1;fill-rule:evenodd;stroke:none"
             id="path304" />
        </g>
        <g
           id="g306"
           transform="translate(118.3369,62.8408)">
          <path
             d="M 0,0 C 0.286,0.313 0.57,0.631 0.857,0.945 0.57,0.631 0.286,0.313 0,0"
             style="fill:#a16139;fill-opacity:1;fill-rule:evenodd;stroke:none"
             id="path308" />
        </g>
        <g
           id="g310"
           transform="translate(114.709,144.2871)">
          <path
             d="M 0,0 C -0.04,0.14 -0.083,0.279 -0.124,0.417 -0.044,0.331 0.044,0.248 0.108,0.15 0.12,0.133 0.041,0.052 0,0"
             style="fill:#e5e5e5;fill-opacity:1;fill-rule:evenodd;stroke:none"
             id="path312" />
        </g>
        <g
           id="g314"
           transform="translate(117.8643,62.2139)">
          <path
             d="M 0,0 C 0.149,0.228 0.297,0.456 0.446,0.685 0.297,0.456 0.149,0.228 0,0"
             style="fill:#a16139;fill-opacity:1;fill-rule:evenodd;stroke:none"
             id="path316" />
        </g>
        <g
           id="g318"
           transform="translate(68.6323,72.2568)">
          <path
             d="M 0,0 C 0.147,-0.047 0.196,-0.141 0.145,-0.279 0.017,-0.229 -0.032,-0.133 0,0"
             style="fill:#a16139;fill-opacity:1;fill-rule:evenodd;stroke:none"
             id="path320" />
        </g>
        <g
           id="g322"
           transform="translate(72.4492,109.7437)">
          <path
             d="M 0,0 C 0.655,0.933 1.185,2.003 2.01,2.751 2.557,3.246 3.613,3.602 4.274,3.418 4.797,3.273 5.358,2.227 5.389,1.556 5.468,-0.083 5.25,-1.733 5.151,-3.38 5.062,-3.973 4.974,-4.563 4.886,-5.156 4.848,-5.437 4.809,-5.719 4.771,-6.001 c -0.197,-4.497 -0.392,-8.994 -0.586,-13.49 0.461,-3.617 0.921,-7.228 1.382,-10.845 0.043,-1.565 0.268,-3.154 0.084,-4.693 -0.221,-1.858 -1.498,-2.366 -2.782,-1.024 -1.21,1.265 -2.359,2.836 -2.853,4.476 -0.928,3.082 -1.362,6.311 -2.003,9.479 -0.112,0.552 -0.229,1.102 -0.342,1.653 -0.052,2.434 -0.103,4.868 -0.154,7.302 0.092,0.462 0.184,0.925 0.275,1.388 0.022,0.581 0.045,1.16 0.067,1.741 l 0.03,-0.012 c 0.101,0.594 0.2,1.187 0.3,1.782 0.015,0.429 0.029,0.857 0.043,1.285 C -1.179,-4.64 -0.59,-2.32 0,0"
             style="fill:#f2c693;fill-opacity:1;fill-rule:evenodd;stroke:none"
             id="path324" />
        </g>
        <g
           id="g326"
           transform="translate(99.1367,124.9229)">
          <path
             d="m 0,0 c 0.337,-12.87 -1.363,-25.701 -3.055,-31.399 0.16,2.72 0.312,5.441 0.487,8.159 0.03,0.501 0.218,0.995 0.216,1.491 -0.026,14.117 0.031,28.237 -0.151,42.353 -0.074,5.544 -0.664,11.083 -1.066,16.621 -0.086,1.2 -0.369,2.385 -0.56,3.578 0.174,0.032 0.346,0.065 0.518,0.096 0.63,-3.316 1.377,-6.617 1.868,-9.955 C -0.366,21.566 0.022,12.12 -0.007,2.648 -0.007,2.203 0.304,1.756 0.47,1.31 0.312,0.873 0.157,0.437 0,0"
             style="fill:#b06021;fill-opacity:1;fill-rule:evenodd;stroke:none"
             id="path328" />
        </g>
        <g
           id="g330"
           transform="translate(87.8472,63.6279)">
          <path
             d="M 0,0 C -6.204,13.344 -7.255,27.049 -3.143,41.111 -3.66,27.29 -2.823,13.568 0,0"
             style="fill:#e2995c;fill-opacity:1;fill-rule:evenodd;stroke:none"
             id="path332" />
        </g>
        <g
           id="g334"
           transform="translate(99.9219,61.2148)">
          <path
             d="M 0,0 C 1.622,6.686 3.593,13.314 4.765,20.078 5.926,26.77 6.279,33.602 7.135,40.349 9.889,25.968 7.185,12.548 0,0"
             style="fill:#e2995c;fill-opacity:1;fill-rule:evenodd;stroke:none"
             id="path336" />
        </g>
        <g
           id="g338"
           transform="translate(108.1377,135.479)">
          <path
             d="M 0,0 C 0.051,0.478 0.19,0.965 0.134,1.43 -0.238,4.707 -0.653,7.979 -0.688,11.358 -0.054,9.396 0.619,7.444 1.201,5.466 1.483,4.509 1.646,3.506 1.774,2.513 1.856,1.926 1.925,1.255 1.72,0.732 1.501,0.173 1.153,-0.133 2.099,-0.146 2.271,-0.148 2.557,-0.642 2.59,-0.932 2.957,-4.221 3.328,-7.51 3.61,-10.807 3.854,-13.606 4.219,-16.427 4.103,-19.221 3.915,-23.67 3.379,-28.105 2.964,-32.544 2.944,-32.773 2.694,-32.979 2.678,-33.001 1.93,-22.631 1.174,-12.167 0.419,-1.7 0.28,-1.409 0.142,-1.119 0.001,-0.828 0.001,-0.551 0.001,-0.276 0,0"
             style="fill:#b06021;fill-opacity:1;fill-rule:evenodd;stroke:none"
             id="path340" />
        </g>
        <g
           id="g342"
           transform="translate(84.9517,111.6665)">
          <path
             d="M 0,0 C -1.72,15.725 1.325,30.757 6.277,45.511 6.453,45.484 6.629,45.458 6.806,45.431 6.348,42.986 5.84,40.551 5.437,38.098 4.381,31.647 3.302,25.198 2.361,18.729 1.617,13.612 1.027,8.472 0.463,3.331 0.362,2.4 0.724,1.417 0.873,0.458 0.582,0.305 0.291,0.152 0,0"
             style="fill:#b06021;fill-opacity:1;fill-rule:evenodd;stroke:none"
             id="path344" />
        </g>
        <g
           id="g346"
           transform="translate(117.248,99.6704)">
          <path
             d="M 0,0 C 2.442,-9.022 0.083,-17.286 -3.972,-25.28 -2.665,-16.85 0.136,-8.656 0,0"
             style="fill:#b06021;fill-opacity:1;fill-rule:evenodd;stroke:none"
             id="path348" />
        </g>
        <g
           id="g350"
           transform="translate(93.9229,56.5078)">
          <path
             d="M 0,0 C -0.326,-0.469 -0.551,-1.254 -1.299,-0.422 0.867,7.545 0.71,15.783 1.58,24.391 1.919,23.477 2.207,22.975 2.286,22.443 3.115,16.775 3.05,11.125 1.697,5.54 1.244,3.664 0.573,1.844 0,0"
             style="fill:#b06021;fill-opacity:1;fill-rule:evenodd;stroke:none"
             id="path352" />
        </g>
        <g
           id="g354"
           transform="translate(83.5986,148.6445)">
          <path
             d="m 0,0 c -0.698,-2.784 -1.469,-5.553 -2.069,-8.356 -0.509,-2.379 -0.92,-4.789 -1.189,-7.204 -0.359,-3.214 -0.531,-6.448 -0.798,-9.67 -0.019,-0.244 -0.151,-0.478 -0.23,-0.717 -0.148,0.002 -0.296,0.002 -0.443,0.003 -0.225,2.508 -0.772,5.04 -0.6,7.52 0.323,4.658 0.942,9.322 2.765,13.687 0.689,1.651 1.687,3.173 2.544,4.753 z"
             style="fill:#e2995c;fill-opacity:1;fill-rule:evenodd;stroke:none"
             id="path356" />
        </g>
        <g
           id="g358"
           transform="translate(72.4492,109.7437)">
          <path
             d="m 0,0 c -0.59,-2.32 -1.179,-4.64 -1.768,-6.959 -2.428,-0.738 -0.421,-2.017 -0.373,-3.055 -0.022,-0.581 -0.045,-1.16 -0.067,-1.741 -0.12,-10e-4 -0.238,-0.004 -0.357,-0.011 -0.134,-0.526 -0.376,-1.052 -0.384,-1.581 -0.028,-1.79 0.024,-3.584 0.046,-5.374 -0.889,-0.083 -1.317,0.246 -1.326,1.215 -0.042,5.284 -0.196,10.568 -0.139,15.849 0.013,1.192 0.708,2.376 1.27,3.593 0.746,-2.374 0.095,-4.944 0.875,-7.406 C -1.396,-3.653 -2.592,-1.019 0,0"
             style="fill:#c67c45;fill-opacity:1;fill-rule:evenodd;stroke:none"
             id="path360" />
        </g>
        <g
           id="g362"
           transform="translate(76.6338,90.2524)">
          <path
             d="m 0,0 c 0.194,4.496 0.39,8.993 0.587,13.49 0.29,10e-4 0.581,0.003 0.871,0.002 C 1.321,13.208 1.185,12.925 1.047,12.64 0.803,8.715 0.56,4.789 0.317,0.863 0.211,0.576 0.105,0.287 0,0"
             style="fill:#c67c45;fill-opacity:1;fill-rule:evenodd;stroke:none"
             id="path364" />
        </g>
        <g
           id="g366"
           transform="translate(76.6338,90.2524)">
          <path
             d="M 0,0 C 0.105,0.287 0.211,0.576 0.317,0.863 0.616,-0.797 1.042,-2.445 1.18,-4.12 1.363,-6.35 1.325,-8.602 1.383,-10.845 0.921,-7.228 0.461,-3.617 0,0"
             style="fill:#bd6933;fill-opacity:1;fill-rule:evenodd;stroke:none"
             id="path368" />
        </g>
        <g
           id="g370"
           transform="translate(84.9517,111.6665)">
          <path
             d="M 0,0 C 0.291,0.152 0.582,0.305 0.873,0.458 L 0.866,0.449 C 1.152,0.459 1.435,0.47 1.72,0.48 0.002,-1.283 -1.716,-3.047 -3.434,-4.812 c 0.001,0.433 0.002,0.863 0.003,1.293 l -0.008,-0.005 c 0.435,0.297 0.868,0.592 1.301,0.89 v -0.002 c 0.572,0.587 1.145,1.176 1.717,1.765 L -0.43,-0.876 c 0.145,0.295 0.291,0.591 0.435,0.887 z"
             style="fill:#d4894a;fill-opacity:1;fill-rule:evenodd;stroke:none"
             id="path372" />
        </g>
        <g
           id="g374"
           transform="translate(69.5464,91.0229)">
          <path
             d="M 0,0 C -0.022,1.79 -0.074,3.583 -0.046,5.374 -0.038,5.903 0.204,6.429 0.338,6.955 0.365,6.495 0.393,6.037 0.42,5.578 0.471,3.144 0.522,0.71 0.574,-1.724 0.382,-1.15 0.191,-0.576 0,0"
             style="fill:#bd6933;fill-opacity:1;fill-rule:evenodd;stroke:none"
             id="path376" />
        </g>
        <g
           id="g378"
           transform="translate(102.998,129.749)">
          <path
             d="M 0,0 C 0.857,1.028 1.715,2.056 2.568,3.083 2.567,2.652 2.567,2.223 2.565,1.792 H 2.571 C 2.428,1.644 2.284,1.496 2.139,1.347 L 2.141,1.352 C 1.999,1.058 1.856,0.763 1.714,0.468 l 0.008,0.01 C 1.433,0.327 1.141,0.178 0.85,0.029 L 0.851,0.031 C 0.566,0.021 0.284,0.01 0,0"
             style="fill:#bd6933;fill-opacity:1;fill-rule:evenodd;stroke:none"
             id="path380" />
        </g>
        <g
           id="g382"
           transform="translate(81.5205,108.1479)">
          <path
             d="M 0,0 C 0,-0.43 -0.001,-0.861 -0.003,-1.293 L 0.001,-1.296 C -0.141,-1.444 -0.286,-1.592 -0.43,-1.74 l 0.004,0.004 c -0.143,-0.294 -0.285,-0.587 -0.427,-0.88 l 0.004,0.005 C -1.138,-2.76 -1.428,-2.91 -1.718,-3.059 l 0.006,0.003 c -0.281,-0.014 -0.562,-0.03 -0.843,-0.045 l -0.033,0.031 c -0.003,0.143 -0.007,0.285 -0.011,0.427 C -1.733,-1.761 -0.867,-0.879 0,0"
             style="fill:#bd6933;fill-opacity:1;fill-rule:evenodd;stroke:none"
             id="path384" />
        </g>
        <g
           id="g386"
           transform="translate(86.6719,112.147)">
          <path
             d="M 0,0 C -0.286,-0.011 -0.568,-0.021 -0.854,-0.032 -0.137,0.702 0.58,1.437 1.295,2.171 1.292,1.888 1.291,1.603 1.288,1.32 L 1.289,1.319 C 1.146,1.024 1.006,0.731 0.864,0.437 L 0.872,0.445 C 0.581,0.295 0.291,0.145 0.001,-0.004 Z"
             style="fill:#bd6933;fill-opacity:1;fill-rule:evenodd;stroke:none"
             id="path388" />
        </g>
        <g
           id="g390"
           transform="translate(89.2603,115.6431)">
          <path
             d="M 0,0 C 0.713,0.733 1.427,1.467 2.142,2.201 2.139,1.917 2.137,1.634 2.132,1.349 L 2.137,1.35 C 1.997,1.056 1.854,0.76 1.711,0.468 L 1.72,0.475 C 1.428,0.326 1.138,0.176 0.848,0.026 L 0.847,0.029 C 0.564,0.02 0.282,0.01 0,0"
             style="fill:#bd6933;fill-opacity:1;fill-rule:evenodd;stroke:none"
             id="path392" />
        </g>
        <g
           id="g394"
           transform="translate(102.998,129.749)">
          <path
             d="m 0,0 c 0.284,0.01 0.566,0.021 0.851,0.031 -0.717,-0.735 -1.434,-1.47 -2.149,-2.204 0.002,0.283 0.004,0.567 0.006,0.85 v 0.005 c 0.143,0.293 0.285,0.587 0.426,0.878 l -0.005,-0.006 c 0.286,0.149 0.574,0.297 0.864,0.446 z"
             style="fill:#d4894a;fill-opacity:1;fill-rule:evenodd;stroke:none"
             id="path396" />
        </g>
        <g
           id="g398"
           transform="translate(91.3926,116.9917)">
          <path
             d="M 0,0 C 0.005,0.285 0.007,0.568 0.01,0.852 L 0.011,0.859 C 0.152,1.15 0.293,1.444 0.433,1.735 L 0.429,1.732 c 0.289,0.147 0.575,0.295 0.863,0.443 l 0.009,0.004 c 0.283,0.01 0.565,0.019 0.85,0.03 C 1.435,1.473 0.718,0.736 0,0"
             style="fill:#d4894a;fill-opacity:1;fill-rule:evenodd;stroke:none"
             id="path400" />
        </g>
        <g
           id="g402"
           transform="translate(93.5439,119.2007)">
          <path
             d="m 0,0 c -0.285,-0.011 -0.567,-0.02 -0.851,-0.03 0.709,0.74 1.417,1.48 2.127,2.22 L 1.293,2.175 C 1.292,1.898 1.292,1.623 1.29,1.345 1.148,1.043 1.006,0.739 0.863,0.437 L 0.871,0.445 C 0.582,0.295 0.29,0.146 0,-0.003 Z"
             style="fill:#bd6933;fill-opacity:1;fill-rule:evenodd;stroke:none"
             id="path404" />
        </g>
        <g
           id="g406"
           transform="translate(89.2603,115.6431)">
          <path
             d="m 0,0 c 0.282,0.01 0.564,0.02 0.847,0.029 -0.715,-0.734 -1.432,-1.471 -2.148,-2.205 0.003,0.283 0.005,0.568 0.008,0.851 v 0.006 c 0.142,0.294 0.282,0.585 0.424,0.876 l -0.006,-0.004 c 0.287,0.148 0.575,0.296 0.863,0.443 z"
             style="fill:#d4894a;fill-opacity:1;fill-rule:evenodd;stroke:none"
             id="path408" />
        </g>
        <g
           id="g410"
           transform="translate(101.7061,128.4258)">
          <path
             d="m 0,0 c -0.002,-0.283 -0.004,-0.567 -0.006,-0.85 l 0.001,-0.003 c -0.141,-0.293 -0.282,-0.587 -0.424,-0.88 l 0.007,0.006 c -0.289,-0.149 -0.58,-0.299 -0.87,-0.447 l 0.001,0.002 C -1.435,-2.175 -1.574,-2.178 -1.715,-2.184 -1.784,-0.954 -1.291,-0.162 0,0"
             style="fill:#bd6933;fill-opacity:1;fill-rule:evenodd;stroke:none"
             id="path412" />
        </g>
        <g
           id="g414"
           transform="translate(78.9214,105.5054)">
          <path
             d="m 0,0 c 0.004,-0.143 0.008,-0.285 0.011,-0.427 -0.532,-0.164 -1.065,-0.326 -1.597,-0.491 0.087,0.593 0.176,1.184 0.265,1.776 C -0.881,0.572 -0.44,0.286 0,0"
             style="fill:#c67c45;fill-opacity:1;fill-rule:evenodd;stroke:none"
             id="path416" />
        </g>
        <g
           id="g418"
           transform="translate(108.1377,135.479)">
          <path
             d="m 0,0 c 0.001,-0.276 0.001,-0.551 0.001,-0.828 0.003,-0.303 0.004,-0.606 0.005,-0.909 l 0.018,0.014 c -0.411,-0.034 -0.823,-0.069 -1.232,-0.101 l -0.087,0.078 C -0.864,-1.164 -0.43,-0.582 0,0"
             style="fill:#bd6933;fill-opacity:1;fill-rule:evenodd;stroke:none"
             id="path420" />
        </g>
        <g
           id="g422"
           transform="translate(84.5303,110.7959)">
          <path
             d="M 0,0 C -0.572,-0.589 -1.145,-1.178 -1.717,-1.765 -1.145,-1.178 -0.572,-0.589 0,0"
             style="fill:#bd6933;fill-opacity:1;fill-rule:evenodd;stroke:none"
             id="path424" />
        </g>
        <g
           id="g426"
           transform="translate(105.5635,131.541)">
          <path
             d="M 0,0 C 0.002,0.431 0.002,0.86 0.003,1.291 L -0.003,1.289 C 0.429,1.301 0.858,1.313 1.289,1.326 0.859,0.883 0.431,0.441 0,0"
             style="fill:#d4894a;fill-opacity:1;fill-rule:evenodd;stroke:none"
             id="path428" />
        </g>
        <g
           id="g430"
           transform="translate(77.3354,104.5874)">
          <path
             d="M 0,0 C 0.532,0.165 1.064,0.327 1.597,0.491 L 1.63,0.46 C 1.626,0.326 1.624,0.191 1.621,0.055 1.611,-0.078 1.607,-0.212 1.61,-0.348 1.326,-0.511 1.041,-0.677 0.756,-0.843 0.467,-0.842 0.175,-0.844 -0.115,-0.845 -0.078,-0.563 -0.039,-0.28 0,0"
             style="fill:#bd6933;fill-opacity:1;fill-rule:evenodd;stroke:none"
             id="path432" />
        </g>
        <g
           id="g434"
           transform="translate(99.9912,126.2417)">
          <path
             d="m 0,0 c 0.141,0.006 0.28,0.009 0.424,0.012 -0.428,-0.445 -0.854,-0.888 -1.278,-1.331 0.157,0.437 0.312,0.873 0.469,1.31 C -0.256,-0.014 -0.127,-0.01 0,0"
             style="fill:#d4894a;fill-opacity:1;fill-rule:evenodd;stroke:none"
             id="path436" />
        </g>
        <g
           id="g438"
           transform="translate(78.0918,103.7441)">
          <path
             d="M 0,0 C 0.284,0.167 0.569,0.332 0.854,0.496 0.43,0.048 0.01,-0.404 -0.411,-0.852 -0.273,-0.566 -0.137,-0.283 0,0"
             style="fill:#d4894a;fill-opacity:1;fill-rule:evenodd;stroke:none"
             id="path440" />
        </g>
        <g
           id="g442"
           transform="translate(106.8525,132.8667)">
          <path
             d="m 0,0 c -0.431,-0.013 -0.86,-0.024 -1.292,-0.037 0.427,0.301 0.855,0.602 1.282,0.904 L 0.077,0.788 C 0.072,0.677 0.068,0.566 0.064,0.454 0.043,0.302 0.021,0.148 0.001,-0.006 Z"
             style="fill:#bd6933;fill-opacity:1;fill-rule:evenodd;stroke:none"
             id="path444" />
        </g>
        <g
           id="g446"
           transform="translate(82.8135,109.0322)">
          <path
             d="M 0,0 C -0.433,-0.298 -0.866,-0.593 -1.301,-0.89 -0.866,-0.593 -0.433,-0.298 0,0"
             style="fill:#bd6933;fill-opacity:1;fill-rule:evenodd;stroke:none"
             id="path448" />
        </g>
        <g
           id="g450"
           transform="translate(106.917,133.3208)">
          <path
             d="M 0,0 C 0.004,0.112 0.008,0.223 0.013,0.334 0.422,0.367 0.834,0.401 1.245,0.435 0.954,0.285 0.661,0.134 0.369,-0.017 0.246,-0.015 0.122,-0.009 0,0"
             style="fill:#e2995c;fill-opacity:1;fill-rule:evenodd;stroke:none"
             id="path452" />
        </g>
        <g
           id="g454"
           transform="translate(78.9561,104.6426)">
          <path
             d="M 0,0 C 0.003,0.136 0.006,0.271 0.01,0.405 0.29,0.419 0.571,0.436 0.852,0.45 0.568,0.298 0.285,0.151 0,0"
             style="fill:#d4894a;fill-opacity:1;fill-rule:evenodd;stroke:none"
             id="path456" />
        </g>
        <g
           id="g458"
           transform="translate(79.8027,105.0889)">
          <path
             d="M 0,0 C 0.29,0.149 0.58,0.299 0.869,0.448 0.58,0.299 0.29,0.149 0,0"
             style="fill:#d4894a;fill-opacity:1;fill-rule:evenodd;stroke:none"
             id="path460" />
        </g>
        <g
           id="g462"
           transform="translate(80.6675,105.5322)">
          <path
             d="M 0,0 C 0.142,0.293 0.284,0.586 0.427,0.879 0.284,0.586 0.142,0.293 0,0"
             style="fill:#d4894a;fill-opacity:1;fill-rule:evenodd;stroke:none"
             id="path464" />
        </g>
        <g
           id="g466"
           transform="translate(84.957,111.6772)">
          <path
             d="M 0,0 C -0.145,-0.296 -0.291,-0.592 -0.436,-0.887 -0.291,-0.592 -0.145,-0.296 0,0"
             style="fill:#b06021;fill-opacity:1;fill-rule:evenodd;stroke:none"
             id="path468" />
        </g>
        <g
           id="g470"
           transform="translate(86.6729,112.1426)">
          <path
             d="M 0,0 C 0.29,0.149 0.58,0.3 0.871,0.45 0.58,0.3 0.29,0.149 0,0"
             style="fill:#d4894a;fill-opacity:1;fill-rule:evenodd;stroke:none"
             id="path472" />
        </g>
        <g
           id="g474"
           transform="translate(88.3916,115.1997)">
          <path
             d="M 0,0 C -0.142,-0.291 -0.283,-0.582 -0.424,-0.876 -0.283,-0.582 -0.142,-0.291 0,0"
             style="fill:#bd6933;fill-opacity:1;fill-rule:evenodd;stroke:none"
             id="path476" />
        </g>
        <g
           id="g478"
           transform="translate(89.248,115.6392)">
          <path
             d="M 0,0 C -0.288,-0.147 -0.576,-0.295 -0.863,-0.443 -0.576,-0.295 -0.288,-0.147 0,0"
             style="fill:#bd6933;fill-opacity:1;fill-rule:evenodd;stroke:none"
             id="path480" />
        </g>
        <g
           id="g482"
           transform="translate(90.1079,115.6689)">
          <path
             d="M 0,0 C 0.29,0.15 0.581,0.3 0.873,0.449 0.581,0.3 0.29,0.15 0,0"
             style="fill:#d4894a;fill-opacity:1;fill-rule:evenodd;stroke:none"
             id="path484" />
        </g>
        <g
           id="g486"
           transform="translate(90.9717,116.1108)">
          <path
             d="M 0,0 C 0.143,0.292 0.285,0.588 0.426,0.882 0.285,0.588 0.143,0.292 0,0"
             style="fill:#d4894a;fill-opacity:1;fill-rule:evenodd;stroke:none"
             id="path488" />
        </g>
        <g
           id="g490"
           transform="translate(91.8252,118.7266)">
          <path
             d="M 0,0 C -0.14,-0.291 -0.28,-0.584 -0.422,-0.875 -0.28,-0.584 -0.14,-0.291 0,0"
             style="fill:#bd6933;fill-opacity:1;fill-rule:evenodd;stroke:none"
             id="path492" />
        </g>
        <g
           id="g494"
           transform="translate(92.6846,119.1665)">
          <path
             d="M 0,0 C -0.288,-0.147 -0.574,-0.296 -0.863,-0.443 -0.574,-0.296 -0.288,-0.147 0,0"
             style="fill:#bd6933;fill-opacity:1;fill-rule:evenodd;stroke:none"
             id="path496" />
        </g>
        <g
           id="g498"
           transform="translate(93.5439,119.1973)">
          <path
             d="M 0,0 C 0.29,0.149 0.582,0.298 0.871,0.449 0.582,0.298 0.29,0.149 0,0"
             style="fill:#d4894a;fill-opacity:1;fill-rule:evenodd;stroke:none"
             id="path500" />
        </g>
        <g
           id="g502"
           transform="translate(94.4072,119.6382)">
          <path
             d="M 0,0 C 0.143,0.302 0.285,0.605 0.427,0.908 0.285,0.605 0.143,0.302 0,0"
             style="fill:#d4894a;fill-opacity:1;fill-rule:evenodd;stroke:none"
             id="path504" />
        </g>
        <g
           id="g506"
           transform="translate(87.5356,112.5845)">
          <path
             d="M 0,0 C 0.142,0.294 0.283,0.586 0.425,0.881 0.283,0.586 0.142,0.294 0,0"
             style="fill:#d4894a;fill-opacity:1;fill-rule:evenodd;stroke:none"
             id="path508" />
        </g>
        <g
           id="g510"
           transform="translate(95.6729,122.6035)">
          <path
             d="M 0,0 C 0.056,-0.024 0.109,-0.048 0.165,-0.071 0.09,-0.133 0.014,-0.191 -0.062,-0.252 -0.091,-0.203 -0.155,-0.141 -0.143,-0.105 -0.126,-0.059 -0.051,-0.035 0,0"
             style="fill:#bd6933;fill-opacity:1;fill-rule:evenodd;stroke:none"
             id="path512" />
        </g>
        <g
           id="g514"
           transform="translate(100.4141,126.2515)">
          <path
             d="M 0,0 C 0.29,0.148 0.581,0.298 0.87,0.447 0.581,0.298 0.29,0.148 0,0"
             style="fill:#d4894a;fill-opacity:1;fill-rule:evenodd;stroke:none"
             id="path516" />
        </g>
        <g
           id="g518"
           transform="translate(101.2773,126.6929)">
          <path
             d="M 0,0 C 0.142,0.293 0.283,0.586 0.424,0.88 0.283,0.586 0.142,0.293 0,0"
             style="fill:#d4894a;fill-opacity:1;fill-rule:evenodd;stroke:none"
             id="path520" />
        </g>
        <g
           id="g522"
           transform="translate(102.1318,129.3091)">
          <path
             d="M 0,0 C -0.141,-0.292 -0.283,-0.585 -0.426,-0.878 -0.283,-0.585 -0.141,-0.292 0,0"
             style="fill:#bd6933;fill-opacity:1;fill-rule:evenodd;stroke:none"
             id="path524" />
        </g>
        <g
           id="g526"
           transform="translate(102.9912,129.7485)">
          <path
             d="M 0,0 C -0.29,-0.148 -0.578,-0.297 -0.864,-0.445 -0.578,-0.297 -0.29,-0.148 0,0"
             style="fill:#bd6933;fill-opacity:1;fill-rule:evenodd;stroke:none"
             id="path528" />
        </g>
        <g
           id="g530"
           transform="translate(103.8477,129.7778)">
          <path
             d="M 0,0 C 0.291,0.149 0.583,0.298 0.872,0.449 0.583,0.298 0.291,0.149 0,0"
             style="fill:#d4894a;fill-opacity:1;fill-rule:evenodd;stroke:none"
             id="path532" />
        </g>
        <g
           id="g534"
           transform="translate(104.7119,130.2173)">
          <path
             d="M 0,0 C 0.143,0.294 0.285,0.589 0.427,0.883 0.285,0.589 0.143,0.294 0,0"
             style="fill:#d4894a;fill-opacity:1;fill-rule:evenodd;stroke:none"
             id="path536" />
        </g>
        <g
           id="g538"
           transform="translate(108.1436,133.7422)">
          <path
             d="M 0,0 C -0.001,0.303 -0.002,0.605 -0.005,0.909 0.136,0.618 0.274,0.328 0.413,0.037 0.277,0.019 0.138,0.007 0,0"
             style="fill:#e2995c;fill-opacity:1;fill-rule:evenodd;stroke:none"
             id="path540" />
        </g>
        <g
           id="g542"
           transform="translate(83.5791,148.6602)">
          <path
             d="M 0,0 C 0.041,0.183 0.084,0.365 0.126,0.549 0.202,0.501 0.275,0.453 0.351,0.405 0.24,0.265 0.129,0.125 0.02,-0.016 Z"
             style="fill:#e2995c;fill-opacity:1;fill-rule:evenodd;stroke:none"
             id="path544" />
        </g>
        <g
           id="g546"
           transform="translate(94.8203,121.3911)">
          <path
             d="M 0,0 C 0.068,0.066 0.136,0.129 0.202,0.194 0.141,0.125 0.079,0.055 0.017,-0.016 Z"
             style="fill:#bd6933;fill-opacity:1;fill-rule:evenodd;stroke:none"
             id="path548" />
        </g>
        <g
           id="g550"
           transform="translate(81.0903,106.4082)">
          <path
             d="M 0,0 C 0.145,0.147 0.289,0.296 0.432,0.443 0.289,0.296 0.145,0.147 0,0"
             style="fill:#d4894a;fill-opacity:1;fill-rule:evenodd;stroke:none"
             id="path552" />
        </g>
        <g
           id="g554"
           transform="translate(105.1367,131.0962)">
          <path
             d="M 0,0 C 0.146,0.148 0.289,0.297 0.433,0.445 0.289,0.297 0.146,0.148 0,0"
             style="fill:#d4894a;fill-opacity:1;fill-rule:evenodd;stroke:none"
             id="path556" />
        </g>
        <g
           id="g558"
           transform="translate(106.917,133.3208)">
          <path
             d="M 0,0 C 0.122,-0.009 0.246,-0.015 0.369,-0.017 0.224,-0.165 0.079,-0.312 -0.063,-0.46 -0.044,-0.306 -0.021,-0.152 0,0"
             style="fill:#d4894a;fill-opacity:1;fill-rule:evenodd;stroke:none"
             id="path560" />
        </g>
        <g
           id="g562"
           transform="translate(102.498,53.127)">
          <path
             d="M 0,0 C -1.102,-0.261 -2.201,-0.519 -3.303,-0.778 -2.498,0.736 -1.096,-0.278 0,0"
             style="fill:#a16139;fill-opacity:1;fill-rule:evenodd;stroke:none"
             id="path564" />
        </g>
        <g
           id="g566"
           transform="translate(124.5547,111.333)">
          <path
             d="M 0,0 C 0.144,-0.429 0.286,-0.856 0.429,-1.284 0.286,-0.856 0.144,-0.429 0,0"
             style="fill:#c67c45;fill-opacity:1;fill-rule:evenodd;stroke:none"
             id="path568" />
        </g>
        <g
           id="g570"
           transform="translate(114.1719,140.3428)">
          <path
             d="m 0,0 c -0.067,-0.065 -0.137,-0.129 -0.204,-0.194 0.064,0.071 0.124,0.14 0.187,0.211 z"
             style="fill:#ca7b3d;fill-opacity:1;fill-rule:evenodd;stroke:none"
             id="path572" />
        </g>
        <g
           id="g574"
           transform="translate(114.1553,140.3599)">
          <path
             d="M 0,0 C 0.068,0.062 0.133,0.125 0.201,0.188 0.142,0.119 0.077,0.051 0.017,-0.017 Z"
             style="fill:#ca7b3d;fill-opacity:1;fill-rule:evenodd;stroke:none"
             id="path576" />
        </g>
        <g
           id="g578"
           transform="translate(70.3086,99.7295)">
          <path
             d="M 0,0 C -0.048,1.038 -2.055,2.317 0.373,3.055 0.359,2.627 0.344,2.199 0.33,1.77 0.229,1.175 0.131,0.582 0.03,-0.012 Z"
             style="fill:#ca7b3d;fill-opacity:1;fill-rule:evenodd;stroke:none"
             id="path580" />
        </g>
        <g
           id="g582"
           transform="translate(70.3384,99.7178)">
          <path
             d="M 0,0 C 0.101,0.594 0.2,1.187 0.3,1.782 0.2,1.187 0.101,0.594 0,0"
             style="fill:#e2995c;fill-opacity:1;fill-rule:evenodd;stroke:none"
             id="path584" />
        </g>
        <g
           id="g586"
           transform="translate(69.9663,96.6006)">
          <path
             d="M 0,0 C -0.027,0.459 -0.055,0.917 -0.082,1.377 0.037,1.384 0.155,1.387 0.274,1.388 0.184,0.925 0.092,0.462 0,0"
             style="fill:#ca7b3d;fill-opacity:1;fill-rule:evenodd;stroke:none"
             id="path588" />
        </g>
      </g>
    </g>
    <text
       xml:space="preserve"
       transform="matrix(1,0,0,-1,61.2866,18.2188)"
       style="font-variant:normal;font-weight:bold;font-stretch:normal;font-size:37.9075px;font-family:'Agency FB';-inkscape-font-specification:AgencyFB-Bold;writing-mode:lr-tb;fill:#ffffff;fill-opacity:1;fill-rule:nonzero;stroke:none"
       id="text592"><tspan
         x="0 13.94996 29.340405 42.494308"
         y="0"
         sodipodi:role="line"
         id="tspan590">Loza</tspan></text>
  </g>
</svg>
